<?xml version="1.0" encoding="UTF-8"?>
<svg id="Layer_2" data-name="Layer 2" xmlns="http://www.w3.org/2000/svg" viewBox="0 0 289 289">
  <defs>
    <style>
      .cls-1 {
        fill: #231f20;
        stroke: #231f20;
        stroke-miterlimit: 10;
      }
    </style>
  </defs>
  <g id="Layer_1-2" data-name="Layer 1">
    <rect class="cls-1" x=".5" y="144.5" width="72" height="72" rx="8" ry="8"/>
    <path class="cls-1" d="m288.5,144.5c0,8.22-.69,16.27-2.01,24.11-.68,4.02-1.52,7.99-2.53,11.89-2.7,10.48-6.54,20.49-11.4,29.89h0c-1.06,2.08-2.17,4.11-3.33,6.11-.62,1.07-1.25,2.14-1.9,3.19-4.36,7.11-9.33,13.82-14.83,20.04-1.99,2.26-4.05,4.46-6.18,6.59-2.13,2.13-4.33,4.19-6.59,6.18-6.22,5.5-12.93,10.47-20.04,14.83-1.05.65-2.12,1.28-3.19,1.9-2,1.16-4.03,2.27-6.1,3.33h-.01c-9.4,4.86-19.41,8.7-29.89,11.4-3.9,1.01-7.87,1.85-11.89,2.53-7.84,1.32-15.89,2.01-24.11,2.01h-64c-4.42,0-8-3.58-8-8v-56c0-4.42,3.58-8,8-8h64c7.37,0,14.48-1.11,21.18-3.17h0c5.21-1.6,10.17-3.78,14.81-6.46,5.46-3.17,10.47-7.02,14.91-11.46s8.29-9.45,11.46-14.91c2.67-4.63,4.85-9.58,6.45-14.79,2.07-6.71,3.18-13.83,3.18-21.21s-1.11-14.48-3.17-21.18h0c-1.6-5.22-3.78-10.18-6.46-14.82-3.17-5.46-7.02-10.47-11.46-14.91s-9.45-8.29-14.91-11.46c-4.64-2.68-9.6-4.86-14.81-6.46h0c-6.7-2.06-13.81-3.17-21.18-3.17H8.5c-4.42,0-8-3.58-8-8V8.5C.5,4.08,4.08.5,8.5.5h136c8.22,0,16.27.69,24.11,2.01,4.02.68,7.99,1.52,11.89,2.53,10.48,2.7,20.49,6.54,29.89,11.4h.01c2.07,1.06,4.1,2.17,6.1,3.33,1.07.62,2.14,1.25,3.19,1.9,7.11,4.36,13.82,9.33,20.04,14.83,2.26,1.99,4.46,4.05,6.59,6.18,2.13,2.13,4.19,4.33,6.18,6.59,5.5,6.22,10.47,12.93,14.83,20.04.65,1.05,1.28,2.12,1.9,3.19,1.16,2,2.27,4.03,3.33,6.1h0c4.86,9.41,8.7,19.42,11.4,29.9,1.01,3.9,1.85,7.87,2.53,11.89,1.32,7.84,2.01,15.89,2.01,24.11Z"/>
  </g>
</svg>